<svg width="56" height="56" viewBox="0 0 56 56" xmlns="http://www.w3.org/2000/svg"><title>Group 2</title><defs><linearGradient x1="18.848%" y1="-60.439%" x2="-13.344%" y2="100%" id="a"><stop stop-color="#2D18FF" offset="0%"/><stop stop-color="#FF177A" offset="50.059%"/><stop stop-color="#FFCF37" offset="100%"/></linearGradient></defs><g fill-rule="nonzero" fill="none"><path d="M28 56C12.536 56 0 43.464 0 28S12.536 0 28 0s28 12.536 28 28-12.536 28-28 28z" fill="url(#a)"/><path d="M27.737 13c4.002 0 4.504.017 6.076.089 1.568.071 2.64.32 3.577.685.97.376 1.79.88 2.61 1.7a7.224 7.224 0 0 1 1.7 2.61c.364.937.613 2.008.685 3.577.072 1.572.089 2.074.089 6.076s-.017 4.504-.089 6.076c-.072 1.568-.32 2.64-.685 3.577-.377.97-.88 1.79-1.7 2.61a7.224 7.224 0 0 1-2.61 1.7c-.937.364-2.009.613-3.577.685-1.572.072-2.074.089-6.076.089s-4.504-.017-6.076-.089c-1.569-.072-2.64-.32-3.577-.685a7.224 7.224 0 0 1-2.61-1.7 7.223 7.223 0 0 1-1.7-2.61c-.365-.937-.614-2.009-.685-3.577-.072-1.572-.089-2.074-.089-6.076s.017-4.504.089-6.076c.071-1.569.32-2.64.685-3.577.376-.97.88-1.791 1.7-2.61a7.223 7.223 0 0 1 2.61-1.7c.937-.365 2.008-.614 3.577-.685 1.572-.072 2.074-.089 6.076-.089zm0 2.655c-3.935 0-4.401.015-5.955.086-1.437.066-2.217.306-2.737.508a4.565 4.565 0 0 0-1.694 1.102 4.565 4.565 0 0 0-1.102 1.694c-.202.52-.442 1.3-.508 2.737-.07 1.554-.086 2.02-.086 5.955s.015 4.4.086 5.955c.066 1.437.306 2.217.508 2.736a4.566 4.566 0 0 0 1.102 1.695 4.565 4.565 0 0 0 1.694 1.102c.52.202 1.3.442 2.737.507 1.554.071 2.02.086 5.955.086s4.401-.015 5.955-.086c1.437-.065 2.217-.305 2.736-.507a4.565 4.565 0 0 0 1.695-1.102 4.565 4.565 0 0 0 1.102-1.695c.202-.52.442-1.3.507-2.736.071-1.554.086-2.02.086-5.955s-.015-4.401-.086-5.955c-.065-1.437-.305-2.217-.507-2.737a4.565 4.565 0 0 0-1.102-1.694 4.565 4.565 0 0 0-1.695-1.102c-.52-.202-1.3-.442-2.736-.508-1.554-.07-2.02-.086-5.955-.086zm0 4.514a7.568 7.568 0 1 1 0 15.135 7.568 7.568 0 0 1 0-15.135zm0 12.48a4.912 4.912 0 1 0 0-9.824 4.912 4.912 0 0 0 0 9.824zm9.635-12.779a1.768 1.768 0 1 1-3.537 0 1.768 1.768 0 0 1 3.537 0z" fill="#FFF"/></g></svg>